<svg width="142" height="142" viewBox="0 0 142 142" fill="none" xmlns="http://www.w3.org/2000/svg">
<rect width="142" height="142" fill="#1E1E1E"/>
<path d="M27.152 100.28C23.9093 100.28 21.5627 99.768 20.112 98.744C18.6613 97.72 17.808 96.6107 17.552 95.416C17.2107 94.2213 17.04 93.3253 17.04 92.728C17.1253 91.6187 17.6373 90.7227 18.576 90.04C19.4293 89.3573 20.4107 89.016 21.52 89.016C22.2027 89.016 22.8 89.1867 23.312 89.528C23.824 89.784 24.08 90.3813 24.08 91.32C24.08 92.1733 23.7813 92.7707 23.184 93.112C22.5867 93.4533 21.9467 93.624 21.264 93.624C20.6667 93.624 20.1547 93.5387 19.728 93.368C19.216 93.1973 18.96 93.112 18.96 93.112C18.96 95.416 19.8133 96.952 21.52 97.72C23.2267 98.488 25.1467 98.872 27.28 98.872C30.608 98.872 34.0213 97.9333 37.52 96.056C41.104 94.1787 44.7733 91.704 48.528 88.632C52.2827 85.4747 56.1227 81.976 60.048 78.136C64.0587 74.2107 68.1547 70.2853 72.336 66.36C76.8587 62.0933 81.3387 57.8693 85.776 53.688C90.2987 49.4213 94.6507 45.5813 98.832 42.168C103.013 38.7547 106.896 36.024 110.48 33.976C114.064 31.928 117.264 30.904 120.08 30.904C121.019 30.904 121.403 31.0747 121.232 31.416C121.147 31.7573 120.464 32.0133 119.184 32.184C116.197 32.696 112.912 34.0613 109.328 36.28C105.829 38.4133 102.117 41.1867 98.192 44.6C94.2667 47.928 90.2133 51.5973 86.032 55.608C81.936 59.5333 77.7547 63.5013 73.488 67.512C69.5627 71.2667 65.5947 75.064 61.584 78.904C57.6587 82.744 53.7333 86.2853 49.808 89.528C45.968 92.7707 42.128 95.3733 38.288 97.336C34.5333 99.2987 30.8213 100.28 27.152 100.28ZM66.576 94.52C66.064 94.6907 65.4667 94.8187 64.784 94.904C64.1867 94.904 64.016 94.6907 64.272 94.264C64.528 93.8373 64.9973 93.112 65.68 92.088C66.448 90.9787 67.1307 89.656 67.728 88.12C68.4107 86.584 68.752 85.0053 68.752 83.384C68.752 81.2507 68.368 78.8187 67.6 76.088C66.9173 73.272 65.7653 70.5413 64.144 67.896C62.608 65.2507 60.5173 63.0747 57.872 61.368C55.312 59.576 52.1547 58.68 48.4 58.68C45.9253 58.68 43.792 59.2773 42 60.472C40.2933 61.6667 38.9707 63.1173 38.032 64.824C37.1787 66.4453 36.752 68.024 36.752 69.56C36.752 72.888 37.7333 76.0453 39.696 79.032C41.744 82.0187 44.816 84.4507 48.912 86.328C53.008 88.12 58.0853 89.016 64.144 89.016C70.8 89.016 76.7733 87.864 82.064 85.56C87.3547 83.256 91.792 80.2693 95.376 76.6C98.96 72.9307 101.477 69.0907 102.928 65.08C103.355 63.8 103.696 63.3733 103.952 63.8C104.293 64.1413 104.464 64.4827 104.464 64.824C104.464 67.7253 103.483 70.6693 101.52 73.656C99.5573 76.6427 96.784 79.416 93.2 81.976C89.616 84.4507 85.4773 86.456 80.784 87.992C76.0907 89.528 70.9707 90.296 65.424 90.296C59.7067 90.296 54.416 89.4853 49.552 87.864C44.7733 86.2427 40.8907 83.8533 37.904 80.696C35.0027 77.5387 33.552 73.7413 33.552 69.304C33.552 66.3173 34.7893 63.5867 37.264 61.112C39.824 58.552 43.536 57.272 48.4 57.272C52.496 57.272 55.9093 58.2107 58.64 60.088C61.456 61.9653 63.7173 64.2693 65.424 67C67.1307 69.7307 68.368 72.4613 69.136 75.192C69.904 77.9227 70.288 80.184 70.288 81.976C70.288 83.9387 70.032 85.9013 69.52 87.864C69.008 89.7413 68.4533 91.32 67.856 92.6C67.344 93.7947 66.9173 94.4347 66.576 94.52ZM59.024 100.024C59.1093 99.9387 59.9627 98.9147 61.584 96.952C63.2053 94.9893 65.3387 92.3867 67.984 89.144C70.6293 85.9013 73.616 82.2747 76.944 78.264C80.272 74.168 83.728 69.9867 87.312 65.72C90.896 61.4533 94.3947 57.3147 97.808 53.304C101.307 49.208 104.507 45.5387 107.408 42.296C110.395 38.968 112.869 36.3227 114.832 34.36C116.88 32.3973 118.203 31.3733 118.8 31.288C119.227 31.1173 119.611 31.1173 119.952 31.288C120.293 31.4587 120.208 31.7573 119.696 32.184C119.355 32.44 118.16 33.848 116.112 36.408C114.064 38.8827 111.461 42.168 108.304 46.264C105.232 50.2747 101.861 54.712 98.192 59.576C94.608 64.3547 91.024 69.1333 87.44 73.912C83.856 78.6053 80.5707 82.9573 77.584 86.968C74.6827 90.8933 72.2933 94.0507 70.416 96.44C68.624 98.8293 67.6853 100.024 67.6 100.024C67.2587 99.9387 66.6613 99.8533 65.808 99.768C65.04 99.6827 64.272 99.64 63.504 99.64C62.736 99.64 61.84 99.6827 60.816 99.768C59.8773 99.9387 59.28 100.024 59.024 100.024Z" fill="#C08453"/>
<g filter="url(#filter0_d_0_1)">
<circle cx="71" cy="67" r="65.5" stroke="#C08453" stroke-width="3" shape-rendering="crispEdges"/>
</g>
<defs>
<filter id="filter0_d_0_1" x="0" y="0" width="142" height="142" filterUnits="userSpaceOnUse" color-interpolation-filters="sRGB">
<feFlood flood-opacity="0" result="BackgroundImageFix"/>
<feColorMatrix in="SourceAlpha" type="matrix" values="0 0 0 0 0 0 0 0 0 0 0 0 0 0 0 0 0 0 127 0" result="hardAlpha"/>
<feOffset dy="4"/>
<feGaussianBlur stdDeviation="2"/>
<feComposite in2="hardAlpha" operator="out"/>
<feColorMatrix type="matrix" values="0 0 0 0 0 0 0 0 0 0 0 0 0 0 0 0 0 0 0.25 0"/>
<feBlend mode="normal" in2="BackgroundImageFix" result="effect1_dropShadow_0_1"/>
<feBlend mode="normal" in="SourceGraphic" in2="effect1_dropShadow_0_1" result="shape"/>
</filter>
</defs>
</svg>
